<svg width="16" height="16" viewBox="0 0 16 16" fill="none" xmlns="http://www.w3.org/2000/svg">
<path fill-rule="evenodd" clip-rule="evenodd" d="M8 16C12.4183 16 16 12.4183 16 8C16 3.58173 12.4183 0 8 0C3.58173 0 0 3.58173 0 8C0 12.4183 3.58173 16 8 16ZM7 2.5C7 2.22388 7.22388 2 7.5 2H8.5C8.77612 2 9 2.22388 9 2.5V7H13.5C13.7761 7 14 7.22388 14 7.5V8.5C14 8.77612 13.7761 9 13.5 9H9V13.5C9 13.7761 8.77612 14 8.5 14H7.5C7.22388 14 7 13.7761 7 13.5V9H2.5C2.22388 9 2 8.77612 2 8.5V7.5C2 7.22388 2.22388 7 2.5 7H7V2.5Z" fill="#AE1818"/>
</svg>
