<svg width="16" height="16" viewBox="0 0 16 16" fill="none" xmlns="http://www.w3.org/2000/svg">
<path fill-rule="evenodd" clip-rule="evenodd" d="M8 16C12.4183 16 16 12.4183 16 8C16 3.58172 12.4183 0 8 0C3.58172 0 0 3.58172 0 8C0 12.4183 3.58172 16 8 16ZM3.40366 4.81812C3.2084 4.62286 3.2084 4.30628 3.40366 4.11102L4.11077 3.40391C4.30603 3.20865 4.62261 3.20865 4.81788 3.40391L7.99986 6.58589L11.1818 3.40391C11.3771 3.20865 11.6937 3.20865 11.8889 3.40391L12.5961 4.11102C12.7913 4.30628 12.7913 4.62286 12.5961 4.81812L9.41407 8.0001L12.5961 11.1821C12.7913 11.3773 12.7913 11.6939 12.5961 11.8892L11.8889 12.5963C11.6937 12.7916 11.3771 12.7916 11.1818 12.5963L7.99986 9.41432L4.81788 12.5963C4.62262 12.7916 4.30603 12.7916 4.11077 12.5963L3.40366 11.8892C3.2084 11.6939 3.2084 11.3773 3.40366 11.1821L6.58564 8.0001L3.40366 4.81812Z" fill="#AE1818"/>
</svg>
