<svg width="16" height="20" viewBox="0 0 16 20" fill="none" xmlns="http://www.w3.org/2000/svg">
<path fill-rule="evenodd" clip-rule="evenodd" d="M11.6 0H4.40001L3.2003 2.30713H0.769227C0.344395 2.30713 0 2.65152 0 3.07636C0 3.50119 0.344395 3.84558 0.769227 3.84558H1.59998V19.0001C1.59998 19.5524 2.0477 20.0001 2.59998 20.0001H13.4C13.9523 20.0001 14.4 19.5524 14.4 19.0001V3.84558H15.2308C15.6556 3.84558 16 3.50119 16 3.07636C16 2.65152 15.6556 2.30713 15.2308 2.30713H12.7997L11.6 0ZM11.1999 2.30768H12.8L12.7997 2.30713H11.1996L10.8 1.53857H5.19999L4.80034 2.30713H3.2003L3.20001 2.30768H4.80005L4.79999 2.3078H11.2L11.1999 2.30768ZM11.1999 2.30768H4.80005L4.80034 2.30713H11.1996L11.1999 2.30768ZM3.20002 6.18428C3.20002 5.74245 3.55819 5.38428 4.00002 5.38428C4.44184 5.38428 4.80002 5.74245 4.80002 6.18428V16.8919C4.80002 17.3337 4.44184 17.6919 4.00002 17.6919C3.55819 17.6919 3.20002 17.3337 3.20002 16.8919V6.18428ZM8.00002 5.38428C7.55819 5.38428 7.20002 5.74245 7.20002 6.18428V16.8919C7.20002 17.3337 7.55819 17.6919 8.00002 17.6919C8.44184 17.6919 8.80002 17.3337 8.80002 16.8919V6.18428C8.80002 5.74245 8.44184 5.38428 8.00002 5.38428ZM11.2 6.18428C11.2 5.74245 11.5582 5.38428 12 5.38428C12.4418 5.38428 12.8 5.74245 12.8 6.18428V16.8919C12.8 17.3337 12.4418 17.6919 12 17.6919C11.5582 17.6919 11.2 17.3337 11.2 16.8919V6.18428Z" fill="#BF7676"/>
</svg>
